# xmcd
#
# Track frame offsets: 
#        150
#        12787
#        25222
#        36694
#        49543
#        64566
#        78803
#        93115
#        104762
#        118494
#        130717
#        144560
#        157617
#        171632
#        184962
#        196162
#        208827
#        220065
#        232667
#        248064
#        261273
#        276353
#        289837
#        302218
#        316098
#        332222
#        346135
#
# Disc length: 4788 seconds
#
# Revision: 1
# Processed by: cddbd v1.5.2PL0 Copyright (c) Steve Scherf et al.
# Submitted via: ExactAudioCopy v1.3
#
DISCID=8912b21b
DTITLE=Various Artist - Akella Presents - Greatest Bluesmen  vol. 01 
DTITLE=CD1
DYEAR=2017
DGENRE=Blues
TTITLE0=Big Bill Broonzy - Long Tall Mama
TTITLE1=Blind Blake - Come on Boys Let's Do That Messin' Around
TTITLE2=Leadbelly - Rock Island Line
TTITLE3=Lonnie Johnson - Blues in G
TTITLE4=Jim Jackson - Hestitation Blues
TTITLE5=Blind Boy Fuller - Homesick and Lonesome Blues
TTITLE6=Hammie Nixon - Drop Down Mama
TTITLE7=Brownie McGhee - Dealing With the Devil
TTITLE8=Blind Gary Davis - Cross and Evil Woman Blues
TTITLE9=Memphis Minnie - Me and My Chauffeur Blues
TTITLE10=Josh White - Good Gal
TTITLE11=Mississippi John Hurt - Nobody's Dirty Business
TTITLE12=Blind Boy Fuller - Truckin' My Blues Away
TTITLE13=Robert Johnson - I Belive I'll Dust My Broom
TTITLE14=Blind Willie McTell - Statesboro Blues
TTITLE15=Tommy McClennan - Bottle It Up And Go
TTITLE16=Tampa Red - It Hurts Me Too
TTITLE17=Roosevelt Sykes - Night Time Is the Right Time
TTITLE18=Texas Alexander - The Risin' Sun - Alger
TTITLE19=Leroy Carr - Mean Mistreatin' Mama
TTITLE20=Tommy Johnson - Big Road Blues
TTITLE21=Skip James - Devil Got My Woman
TTITLE22=Little Brother Montgomery - The First Time I Met the Blues
TTITLE23=Barbecue Bob - Atlanta Moan
TTITLE24=Tommy Johnson - Cool Drink Of Water Blues
TTITLE25=Furry Lewis - Dry Land Blues
TTITLE26=Big Bill Broonzy - Keep Your Hands off Her
EXTD=
EXTT0=
EXTT1=
EXTT2=
EXTT3=
EXTT4=
EXTT5=
EXTT6=
EXTT7=
EXTT8=
EXTT9=
EXTT10=
EXTT11=
EXTT12=
EXTT13=
EXTT14=
EXTT15=
EXTT16=
EXTT17=
EXTT18=
EXTT19=
EXTT20=
EXTT21=
EXTT22=
EXTT23=
EXTT24=
EXTT25=
EXTT26=
PLAYORDER=
